<svg width="206px" height="65px" viewBox="0 0 206 65" version="1.1" xmlns="http://www.w3.org/2000/svg" xmlns:xlink="http://www.w3.org/1999/xlink">
    <g id="Artboard" stroke="none" stroke-width="1" fill="none" fill-rule="evenodd" transform="translate(-62.000000, -33.000000)">
        <g id="Group-2" transform="translate(62.000000, 33.000000)">
            <g id="Group" fill="#FFFFFF">
                <circle id="Oval" cx="32.5" cy="32.5" r="32.5"></circle>
            </g>
            <path d="M10.0720362,32.2684564 L6.57107824,28.0536913 L6,28.0536913 L6,37.7986577 L7.80013794,37.7986577 L7.80013794,32.442953 L10.0720362,35.0201342 L12.3439344,32.442953 L12.3315197,37.7986577 L14.1316576,37.7986577 L14.1316576,28.0536913 L13.5729941,28.0536913 L10.0720362,32.2684564 Z M19.5610392,37.7986577 L19.5610392,28.2013423 L17.7857307,28.2013423 L17.7857307,37.7986577 L19.5610392,37.7986577 Z M23.2151123,28.2013423 L23.2151123,37.7986577 L27.8085677,37.7986577 L27.8085677,35.8791946 L24.9904207,35.8791946 L24.9904207,28.2013423 L23.2151123,28.2013423 Z M42.5283163,32.5771812 L47.0224538,38 L47.4942141,38 L47.4942141,28.2147651 L45.7064909,28.2147651 L45.7064909,33.6375839 L41.2247682,28 L40.7530079,28 L40.7530079,37.7986577 L42.5283163,37.7986577 L42.5283163,32.5771812 Z M55.4189593,37.9328859 C61.5270136,37.9328859 61.5270136,28.0402685 55.4189593,28.0402685 C49.3109051,28.0402685 49.3109051,37.9328859 55.4189593,37.9328859 Z M55.4189593,35.9463087 C58.9695762,35.9463087 58.9695762,30.0134228 55.4189593,30.0134228 C51.8683424,30.0134228 51.8683424,35.9463087 55.4189593,35.9463087 Z" id="MILANO" fill="#333333"></path>
            <polygon id="Path" fill="#333333" points="33.3461538 34.9620253 34.9615385 34.9620253 34.1660839 32.556962"></polygon>
            <polygon id="Path" fill="#333333" points="30.3461538 38 34.0612766 28 34.2464157 28 37.9615385 38 35.9743798 38 35.6164443 36.9608637 32.691248 36.9608637 32.3456552 38"></polygon>
            <rect id="Rectangle-2" fill="#333333" x="32.8846154" y="32.0506329" width="2.53846154" height="3.5443038"></rect>
            <rect id="Rectangle-4" fill="#333333" x="31.9615385" y="36.7341772" width="4.15384615" height="1.26582278"></rect>
            <path d="M77.3867188,38 L78.9511719,27.6875 L80.4101562,27.6875 L82.1152344,38 L80.9726562,38 L80.6796875,36.03125 L78.8105469,36.03125 L78.5410156,38 L77.3867188,38 Z M78.9453125,35.046875 L80.5273438,35.046875 L79.7128906,29.5976562 L79.6953125,29.5976562 L78.9453125,35.046875 Z M88.2871094,38 L88.2871094,27.6875 L90.2265625,27.6875 C91.0156289,27.6875 91.5585923,27.9306616 91.8554688,28.4169922 C92.1523452,28.9033227 92.3007812,29.5937455 92.3007812,30.4882812 L92.3066406,35.0175781 C92.3066406,36.0761772 92.1445329,36.8378883 91.8203125,37.3027344 C91.4960921,37.7675804 90.9511757,38 90.1855469,38 L88.2871094,38 Z M89.4941406,37.0214844 L90.1152344,37.0214844 C90.3496105,37.0214844 90.5332025,36.9746098 90.6660156,36.8808594 C90.9511733,36.6777334 91.09375,36.1191452 91.09375,35.2050781 L91.09375,30.4589844 C91.09375,29.8144499 91.0175789,29.3515639 90.8652344,29.0703125 C90.7128899,28.7890611 90.4628924,28.6484375 90.1152344,28.6484375 L89.4941406,28.6484375 L89.4941406,37.0214844 Z M94.9472656,38 L94.9472656,27.6875 L96.1601562,27.6875 L96.1601562,38 L94.9472656,38 Z M98.8242188,34.9296875 L98.8242188,30.6054688 C98.8242188,29.0898362 99.1835902,28.1484393 99.9023438,27.78125 C100.183595,27.6406243 100.492186,27.5683594 100.828125,27.5644531 C101.457034,27.5644531 101.912108,27.6982408 102.193359,27.9658203 C102.474611,28.2333998 102.65625,28.5869119 102.738281,29.0263672 C102.820313,29.4658225 102.861328,29.9999969 102.861328,30.6289062 L102.861328,31.4257812 L101.689453,31.4257812 L101.689453,30.0839844 C101.689453,29.556638 101.635743,29.1796886 101.52832,28.953125 C101.420898,28.7265614 101.209963,28.6132812 100.895508,28.6132812 C100.581053,28.6132812 100.359376,28.7558579 100.230469,29.0410156 C100.101562,29.3261733 100.037109,29.8300745 100.037109,30.5527344 L100.037109,34.8886719 C100.037109,35.7128947 100.093749,36.2861312 100.207031,36.6083984 C100.320313,36.9306657 100.543944,37.0917969 100.87793,37.0917969 C101.211916,37.0917969 101.440429,36.9257829 101.563477,36.59375 C101.686524,36.2617171 101.748047,35.685551 101.748047,34.8652344 L101.748047,33.5234375 L100.910156,33.5234375 L100.910156,32.5859375 L102.861328,32.5859375 L102.861328,38 L102.222656,38 L102.058594,37.203125 C101.828124,37.8007842 101.387699,38.0996094 100.737305,38.0996094 C100.086911,38.0996094 99.6054703,37.8466822 99.2929688,37.3408203 C98.9804672,36.8349584 98.8242188,36.0312555 98.8242188,34.9296875 Z M105.554688,38 L105.554688,27.6875 L106.767578,27.6875 L106.767578,38 L105.554688,38 Z M108.869141,28.6953125 L108.869141,27.6875 L112.273438,27.6875 L112.273438,28.6953125 L111.212891,28.6953125 L111.212891,38 L110.005859,38 L110.005859,28.6953125 L108.869141,28.6953125 Z M113.824219,38 L115.388672,27.6875 L116.847656,27.6875 L118.552734,38 L117.410156,38 L117.117188,36.03125 L115.248047,36.03125 L114.978516,38 L113.824219,38 Z M115.382812,35.046875 L116.964844,35.046875 L116.150391,29.5976562 L116.132812,29.5976562 L115.382812,35.046875 Z M120.783203,38 L120.783203,27.6875 L121.996094,27.6875 L121.996094,36.9980469 L123.900391,36.9980469 L123.900391,38 L120.783203,38 Z M129.896484,38 L129.896484,27.6875 L131.835938,27.6875 C132.625004,27.6875 133.167967,27.9306616 133.464844,28.4169922 C133.76172,28.9033227 133.910156,29.5937455 133.910156,30.4882812 L133.916016,35.0175781 C133.916016,36.0761772 133.753908,36.8378883 133.429688,37.3027344 C133.105467,37.7675804 132.560551,38 131.794922,38 L129.896484,38 Z M131.103516,37.0214844 L131.724609,37.0214844 C131.958986,37.0214844 132.142577,36.9746098 132.275391,36.8808594 C132.560548,36.6777334 132.703125,36.1191452 132.703125,35.2050781 L132.703125,30.4589844 C132.703125,29.8144499 132.626954,29.3515639 132.474609,29.0703125 C132.322265,28.7890611 132.072267,28.6484375 131.724609,28.6484375 L131.103516,28.6484375 L131.103516,37.0214844 Z M136.462891,38 L136.462891,27.6875 L139.544922,27.6875 L139.544922,28.6953125 L137.675781,28.6953125 L137.675781,32.2226562 L139.445312,32.2226562 L139.445312,33.2304688 L137.675781,33.2304688 L137.675781,36.9921875 L139.568359,36.9921875 L139.568359,38 L136.462891,38 Z M141.757812,29.9960938 C141.757812,29.2499963 141.895506,28.6572288 142.170898,28.2177734 C142.44629,27.7783181 142.972652,27.5585938 143.75,27.5585938 C144.750005,27.5585938 145.339843,28.0390577 145.519531,29 C145.597657,29.4140646 145.636719,29.9355437 145.636719,30.5644531 L145.636719,31.1738281 L144.476562,31.1738281 L144.476562,30.4824219 C144.476562,29.8261686 144.44336,29.3847668 144.376953,29.1582031 C144.310547,28.9316395 144.228516,28.7812504 144.130859,28.7070312 C144.033203,28.6328121 143.906251,28.5957031 143.75,28.5957031 C143.45703,28.5957031 143.246094,28.7031239 143.117188,28.9179688 C142.988281,29.1328136 142.923828,29.4511698 142.923828,29.8730469 C142.923828,30.294924 142.982421,30.6035146 143.099609,30.7988281 C143.216797,30.9941416 143.361327,31.1806632 143.533203,31.3583984 C143.705079,31.5361337 143.800781,31.6367186 143.820312,31.6601562 L144.523438,32.4042969 C145.367192,33.2871138 145.789062,34.2753852 145.789062,35.3691406 C145.789062,36.2597701 145.651369,36.9404273 145.375977,37.4111328 C145.100585,37.8818383 144.576176,38.1171875 143.802734,38.1171875 C142.869136,38.1171875 142.277345,37.7070354 142.027344,36.8867188 C141.882812,36.4257789 141.810547,35.8222694 141.810547,35.0761719 L141.810547,34.015625 L142.988281,34.015625 L142.988281,35.0644531 C142.988281,35.8183631 143.042968,36.342772 143.152344,36.6376953 C143.261719,36.9326187 143.464842,37.0800781 143.761719,37.0800781 C144.058595,37.0800781 144.263671,37.0107429 144.376953,36.8720703 C144.490235,36.7333977 144.555664,36.5214858 144.573242,36.2363281 C144.59082,35.9511704 144.599609,35.6308612 144.599609,35.2753906 C144.599609,34.5605433 144.285159,33.888675 143.65625,33.2597656 L142.982422,32.5859375 C142.380856,31.9687469 142.007813,31.4003932 141.863281,30.8808594 C141.792968,30.6347644 141.757812,30.3398455 141.757812,29.9960938 Z M148.183594,38 L148.183594,27.6875 L149.396484,27.6875 L149.396484,38 L148.183594,38 Z M152.060547,34.9296875 L152.060547,30.6054688 C152.060547,29.0898362 152.419918,28.1484393 153.138672,27.78125 C153.419923,27.6406243 153.728514,27.5683594 154.064453,27.5644531 C154.693363,27.5644531 155.148436,27.6982408 155.429688,27.9658203 C155.710939,28.2333998 155.892578,28.5869119 155.974609,29.0263672 C156.056641,29.4658225 156.097656,29.9999969 156.097656,30.6289062 L156.097656,31.4257812 L154.925781,31.4257812 L154.925781,30.0839844 C154.925781,29.556638 154.872071,29.1796886 154.764648,28.953125 C154.657226,28.7265614 154.446291,28.6132812 154.131836,28.6132812 C153.817381,28.6132812 153.595704,28.7558579 153.466797,29.0410156 C153.33789,29.3261733 153.273438,29.8300745 153.273438,30.5527344 L153.273438,34.8886719 C153.273438,35.7128947 153.330078,36.2861312 153.443359,36.6083984 C153.556641,36.9306657 153.780272,37.0917969 154.114258,37.0917969 C154.448244,37.0917969 154.676757,36.9257829 154.799805,36.59375 C154.922852,36.2617171 154.984375,35.685551 154.984375,34.8652344 L154.984375,33.5234375 L154.146484,33.5234375 L154.146484,32.5859375 L156.097656,32.5859375 L156.097656,38 L155.458984,38 L155.294922,37.203125 C155.064452,37.8007842 154.624027,38.0996094 153.973633,38.0996094 C153.323239,38.0996094 152.841798,37.8466822 152.529297,37.3408203 C152.216795,36.8349584 152.060547,36.0312555 152.060547,34.9296875 Z M158.697266,38 L158.697266,27.6875 L159.611328,27.6875 L162.001953,34.7070312 L161.878906,31.7246094 L161.878906,27.6875 L162.951172,27.6875 L162.951172,38 L162.060547,38 L159.746094,30.921875 L159.816406,33.5234375 L159.816406,38 L158.697266,38 Z M169.128906,38 L170.693359,27.6875 L172.152344,27.6875 L173.857422,38 L172.714844,38 L172.421875,36.03125 L170.552734,36.03125 L170.283203,38 L169.128906,38 Z M170.6875,35.046875 L172.269531,35.046875 L171.455078,29.5976562 L171.4375,29.5976562 L170.6875,35.046875 Z M175.847656,34.9296875 L175.847656,30.6054688 C175.847656,29.0898362 176.207028,28.1484393 176.925781,27.78125 C177.207033,27.6406243 177.515623,27.5683594 177.851562,27.5644531 C178.480472,27.5644531 178.935545,27.6982408 179.216797,27.9658203 C179.498048,28.2333998 179.679687,28.5869119 179.761719,29.0263672 C179.84375,29.4658225 179.884766,29.9999969 179.884766,30.6289062 L179.884766,31.4257812 L178.712891,31.4257812 L178.712891,30.0839844 C178.712891,29.556638 178.65918,29.1796886 178.551758,28.953125 C178.444335,28.7265614 178.2334,28.6132812 177.918945,28.6132812 C177.604491,28.6132812 177.382813,28.7558579 177.253906,29.0410156 C177.124999,29.3261733 177.060547,29.8300745 177.060547,30.5527344 L177.060547,34.8886719 C177.060547,35.7128947 177.117187,36.2861312 177.230469,36.6083984 C177.343751,36.9306657 177.567381,37.0917969 177.901367,37.0917969 C178.235353,37.0917969 178.463867,36.9257829 178.586914,36.59375 C178.709962,36.2617171 178.771484,35.685551 178.771484,34.8652344 L178.771484,33.5234375 L177.933594,33.5234375 L177.933594,32.5859375 L179.884766,32.5859375 L179.884766,38 L179.246094,38 L179.082031,37.203125 C178.851561,37.8007842 178.411136,38.0996094 177.760742,38.0996094 C177.110348,38.0996094 176.628908,37.8466822 176.316406,37.3408203 C176.003905,36.8349584 175.847656,36.0312555 175.847656,34.9296875 Z M182.484375,38 L182.484375,27.6875 L185.566406,27.6875 L185.566406,28.6953125 L183.697266,28.6953125 L183.697266,32.2226562 L185.466797,32.2226562 L185.466797,33.2304688 L183.697266,33.2304688 L183.697266,36.9921875 L185.589844,36.9921875 L185.589844,38 L182.484375,38 Z M188.001953,38 L188.001953,27.6875 L188.916016,27.6875 L191.306641,34.7070312 L191.183594,31.7246094 L191.183594,27.6875 L192.255859,27.6875 L192.255859,38 L191.365234,38 L189.050781,30.921875 L189.121094,33.5234375 L189.121094,38 L188.001953,38 Z M194.826172,34.9589844 L194.826172,30.6640625 C194.826172,29.8828086 194.890624,29.3085956 195.019531,28.9414062 C195.148438,28.5742169 195.289062,28.3046884 195.441406,28.1328125 C195.773439,27.7578106 196.257809,27.5683594 196.894531,27.5644531 C197.785161,27.5683594 198.359374,27.9609336 198.617188,28.7421875 C198.765626,29.1914085 198.839844,29.7890588 198.839844,30.5351562 L198.839844,31.6777344 L197.650391,31.6777344 L197.650391,30.5292969 C197.650391,29.8691373 197.614258,29.4228527 197.541992,29.1904297 C197.469726,28.9580067 197.382813,28.8037113 197.28125,28.7275391 C197.179687,28.6513668 197.050782,28.6132812 196.894531,28.6132812 C196.570311,28.6132812 196.34668,28.7666 196.223633,29.0732422 C196.100585,29.3798843 196.039062,29.8632779 196.039062,30.5234375 L196.039062,34.9882812 C196.039062,35.7695352 196.094726,36.3154281 196.206055,36.6259766 C196.317383,36.936525 196.532225,37.0917969 196.850586,37.0917969 C197.168947,37.0917969 197.381835,36.9355484 197.489258,36.6230469 C197.59668,36.3105453 197.650391,35.7636758 197.650391,34.9824219 L197.650391,33.8398438 L198.851562,33.8398438 L198.851562,34.9707031 C198.851562,36.0527398 198.704103,36.8486303 198.40918,37.3583984 C198.114256,37.8681666 197.599613,38.1230469 196.865234,38.1230469 C196.130856,38.1230469 195.607423,37.8603542 195.294922,37.3349609 C194.98242,36.8095677 194.826172,36.0175834 194.826172,34.9589844 Z M200.595703,27.6875 L201.773438,27.6875 L202.992188,31.90625 L203.015625,31.90625 L204.076172,27.6875 L205.265625,27.6875 L203.601562,33.6699219 L203.601562,38 L202.388672,38 L202.388672,33.6699219 L200.595703,27.6875 Z" id="A-digital-design-age" fill="#FFFFFF"></path>
        </g>
    </g>
</svg>